# xmcd CD database file
#
# Track frame offsets:
#	187
#	12402
#	29067
#	43172
#	58127
#	74750
#	91932
#	110210
#	125440
#	141652
#	159802
#	173812
#	187695
#	197650
#
# Disc length: 2861 seconds
#
# Revision: 0
# Processed by: cddbd v1.5.2PL0 Copyright (c) Steve Scherf et al.
# Submitted via: CDex 1.70beta2
#
DISCID=cf0b2b0e
DTITLE=Sampler - Todays Top Country
DYEAR=1994
DGENRE=Country
TTITLE0=Randy Travis - Better class of losers
TTITLE1=Mark Collie - Even the man in the moon is cryin
TTITLE2=Gerge Strait - Love without end amen
TTITLE3=Cassandra Vasik - Wich face should i put on tonight
TTITLE4=Jim Witter - Chevy coupe
TTITLE5=Trisha Yearwood - The woman before me
TTITLE6=Joel Feeney - One good reason
TTITLE7=Marty Stuart - Now thats country
TTITLE8=Joan Kennedy - Talk to my heart
TTITLE9=Vince Gill - Never knew lonely
TTITLE10=Mark Chesnutt - Bubba shot the Jukebox
TTITLE11=Anita Perras - It might as well be me
TTITLE12=Peter Wild - She just beat me to the door
TTITLE13=Coda The West - More of me
EXTD=YEAR: 1994
EXTT0=
EXTT1=
EXTT2=
EXTT3=
EXTT4=
EXTT5=
EXTT6=
EXTT7=
EXTT8=
EXTT9=
EXTT10=
EXTT11=
EXTT12=
EXTT13=
PLAYORDER=
